<svg width="80" height="80" viewBox="0 0 80 80" fill="none" xmlns="http://www.w3.org/2000/svg">
  <!-- Modern Fintech Bear - Clean & Professional -->
  <defs>
    <linearGradient id="bearGradient" x1="0%" y1="0%" x2="100%" y2="100%">
      <stop offset="0%" style="stop-color:#0A2463;stop-opacity:1" />
      <stop offset="50%" style="stop-color:#1E3A8A;stop-opacity:1" />
      <stop offset="100%" style="stop-color:#06B6D4;stop-opacity:1" />
    </linearGradient>
    <linearGradient id="accentGradient" x1="0%" y1="0%" x2="100%" y2="100%">
      <stop offset="0%" style="stop-color:#F97316;stop-opacity:1" />
      <stop offset="100%" style="stop-color:#EA580C;stop-opacity:1" />
    </linearGradient>
  </defs>

  <!-- Ears -->
  <circle cx="22" cy="24" r="10" fill="url(#bearGradient)"/>
  <circle cx="58" cy="24" r="10" fill="url(#bearGradient)"/>

  <!-- Inner ears accent -->
  <circle cx="22" cy="26" r="4" fill="url(#accentGradient)" opacity="0.8"/>
  <circle cx="58" cy="26" r="4" fill="url(#accentGradient)" opacity="0.8"/>

  <!-- Head - rounded modern shape -->
  <circle cx="40" cy="42" r="24" fill="url(#bearGradient)"/>

  <!-- Snout - simplified modern design -->
  <ellipse cx="40" cy="50" rx="14" ry="12" fill="#0EA5E9" opacity="0.9"/>

  <!-- Eyes - friendly and professional -->
  <circle cx="31" cy="40" r="3.5" fill="#FFFFFF"/>
  <circle cx="49" cy="40" r="3.5" fill="#FFFFFF"/>
  <circle cx="32" cy="41" r="2" fill="#0A2463"/>
  <circle cx="50" cy="41" r="2" fill="#0A2463"/>
  <circle cx="32.8" cy="40.2" r="0.8" fill="#FFFFFF"/>
  <circle cx="50.8" cy="40.2" r="0.8" fill="#FFFFFF"/>

  <!-- Nose - modern triangle -->
  <path d="M40 48 L43 51 L37 51 Z" fill="url(#accentGradient)"/>

  <!-- Smile - confident and trustworthy -->
  <path d="M33 53 Q40 57 47 53" stroke="#0A2463" stroke-width="2" stroke-linecap="round" fill="none"/>

  <!-- Accent dots for modern flair -->
  <circle cx="40" cy="28" r="1.5" fill="url(#accentGradient)" opacity="0.6"/>
</svg>
